# Blender 4.3.2
# www.blender.org
o house
v -0.600000 0.004816 0.987191
v -0.411446 1.204816 0.679179
v -0.600000 0.004816 -0.973064
v -0.411446 1.204816 -0.665053
v 0.600000 0.004816 0.987191
v 0.411446 1.204816 0.679179
v 0.600000 0.004816 -0.973064
v 0.411446 1.204816 -0.665053
v -0.774953 0.874488 1.323218
v -0.774953 0.874488 -1.208625
v 0.774953 0.874488 -1.208625
v 0.774953 0.874488 1.323218
v -0.600000 0.862520 -0.973064
v 0.600000 0.862520 -0.973064
v 0.600000 0.862520 0.987191
v -0.600000 0.862520 0.987191
v 0.200000 0.004816 -0.973064
v -0.200000 0.004816 -0.973064
v -0.137149 1.204816 -0.665053
v 0.137149 1.204816 -0.665053
v -0.200000 0.004816 0.987191
v 0.200000 0.004816 0.987191
v 0.137149 1.204816 0.679179
v -0.137149 1.204816 0.679179
v 0.258318 0.874488 1.323218
v -0.258318 0.874488 1.323218
v -0.258318 0.874488 -1.208625
v 0.258318 0.874488 -1.208625
v -0.200000 0.862520 -0.973064
v 0.200000 0.862520 -0.973064
v 0.200000 0.862520 0.987191
v -0.200000 0.862520 0.987191
v -0.600000 0.004816 -0.622420
v -0.411446 1.204816 -0.424601
v 0.600000 0.004816 -0.622420
v 0.411446 1.204816 -0.424601
v 0.774953 0.874488 -0.755737
v -0.774953 0.874488 -0.755737
v -0.600000 0.862520 -0.622420
v 0.600000 0.862520 -0.622420
v 0.137149 1.204816 -0.424601
v -0.137149 1.204816 -0.424601
v -0.200000 0.004816 -0.622420
v 0.200000 0.004816 -0.622420
v 0.137149 1.778026 -0.665053
v 0.411446 1.778026 -0.665053
v 0.411446 1.778026 -0.424601
v 0.137149 1.778026 -0.424601
v -0.600000 0.004816 -0.397106
v 0.411446 1.204816 -0.270094
v 0.774953 0.874488 -0.464724
v 0.600000 0.862520 -0.397106
v 0.137149 1.204816 -0.270094
v -0.137149 1.204816 -0.270094
v -0.200000 0.004816 -0.397106
v 0.200000 0.004816 -0.397106
v -0.411446 1.204816 -0.270094
v 0.600000 0.004816 -0.397106
v -0.774953 0.874488 -0.464724
v -0.600000 0.862520 -0.397106
v -0.600000 0.433668 -0.973064
v 0.600000 0.433668 -0.973064
v 0.600000 0.433668 0.987191
v -0.600000 0.433668 0.987191
v 0.200000 0.433668 0.987191
v -0.200000 0.433668 0.987191
v -0.200000 0.433668 -0.973064
v 0.200000 0.433668 -0.973064
v 0.600000 0.433668 -0.622420
v -0.600000 0.433668 -0.622420
v -0.600000 0.433668 -0.397106
v 0.600000 0.433668 -0.397106
v 0.539650 0.004816 -0.397106
v 0.539650 0.004816 -0.622420
v 0.539650 0.433668 -0.622420
v 0.539650 0.433668 -0.397106
vn -0.6725 0.7401 -0.0000
vn -0.0000 0.8546 -0.5193
vn 0.6725 0.7401 -0.0000
vn -0.0000 0.8898 0.4564
vn -0.0000 -1.0000 -0.0000
vn -0.0000 1.0000 -0.0000
vn -0.0000 -0.9994 0.0356
vn 0.0682 -0.9977 -0.0000
vn -0.0000 -0.9987 -0.0507
vn -0.0682 -0.9977 -0.0000
vn -1.0000 -0.0000 -0.0000
vn -0.0000 -0.0000 -1.0000
vn 1.0000 -0.0000 -0.0000
vn -0.0000 -0.0000 1.0000
vt 0.678487 0.101503
vt 0.604452 0.121828
vt 0.678487 0.000000
vt 0.518759 0.567447
vt 0.494368 0.445620
vt 0.604452 0.567447
vt 0.604452 0.400721
vt 0.494368 0.144345
vt 0.604452 0.000000
vt 0.433065 0.000000
vt 0.357876 0.144345
vt 0.347372 -0.000000
vt 0.878703 0.692448
vt 0.847896 0.799062
vt 0.847896 0.692448
vt 0.357876 0.357100
vt 0.403373 0.144345
vt 0.403373 0.357100
vt 0.467097 0.341531
vt 0.434098 0.309080
vt 0.472729 0.309080
vt 0.566889 0.168854
vt 0.549992 0.309080
vt 0.549992 0.175387
vt 0.516993 0.097009
vt 0.549992 0.119761
vt 0.511361 0.119761
vt 0.417201 0.140748
vt 0.434098 0.119761
vt 0.434098 0.153626
vt 0.860089 0.833465
vt 0.883613 0.814232
vt 0.883613 0.833465
vt 0.794923 0.867526
vt 0.818446 0.845585
vt 0.818446 0.867526
vt 0.907136 0.890164
vt 0.922956 0.814232
vt 0.922956 0.890164
vt 0.694036 0.867526
vt 0.717559 0.845585
vt 0.717559 0.867526
vt 0.694036 0.911407
vt 0.717559 0.889467
vt 0.717559 0.911407
vt 0.694036 0.889467
vt 0.794923 0.911408
vt 0.818446 0.889467
vt 0.818446 0.911408
vt 0.794923 0.889467
vt 0.467097 0.097009
vt 0.472729 0.119761
vt 0.516993 0.341531
vt 0.511361 0.309080
vt 0.448871 0.357100
vt 0.494368 0.357100
vt 0.448871 0.144345
vt 0.817089 0.692448
vt 0.786283 0.799062
vt 0.786283 0.692448
vt 0.817089 0.799062
vt 0.518759 0.000000
vt 0.357876 0.445620
vt 0.433065 0.567447
vt 0.347372 0.567447
vt 0.403373 0.445620
vt 0.847896 0.648090
vt 0.817089 0.675095
vt 0.817089 0.648090
vt 0.786283 0.675095
vt 0.786283 0.648090
vt 0.448871 0.391728
vt 0.448871 0.445620
vt 0.334952 0.891549
vt 0.388843 0.763080
vt 0.388843 0.891549
vt 0.907136 0.921756
vt 0.922956 0.902523
vt 0.922956 0.921756
vt 0.860089 0.845824
vt 0.883613 0.845824
vt 0.417201 0.168854
vt 0.434098 0.175387
vt 0.566889 0.140748
vt 0.549993 0.153626
vt 0.403373 0.391728
vt 0.878703 0.648090
vt 0.847896 0.675095
vt 0.604452 0.465944
vt 0.678487 0.166726
vt 0.604452 0.175719
vt 0.168697 0.751008
vt 0.214194 0.697117
vt 0.214194 0.751008
vt 0.168855 0.891548
vt 0.230331 0.763078
vt 0.230331 0.891548
vt 0.291808 0.763078
vt 0.291808 0.891548
vt 0.300593 0.751008
vt 0.300593 0.697117
vt 0.604452 0.423102
vt 0.678487 0.567447
vt 0.860089 0.921756
vt 0.883613 0.921756
vt 0.494368 0.391728
vt 0.907136 0.902523
vt 0.357876 0.391728
vt 0.878703 0.675095
vt 0.907136 0.845824
vt 0.907136 0.833465
vt 0.938777 0.902523
vt 0.938777 0.921756
vt 0.841970 0.867526
vt 0.841970 0.889467
vt 0.841970 0.911408
vt 0.741083 0.867526
vt 0.741083 0.889467
vt 0.741083 0.911407
vt 0.741083 0.845585
vt 0.938777 0.814232
vt 0.938777 0.890164
vt 0.841970 0.845585
vt 0.907136 0.814232
vt 0.188693 0.747282
vt 0.267449 0.848094
vt 0.188693 0.848094
vt 0.627874 0.768053
vt 0.614348 0.717555
vt 0.627874 0.717555
vt 0.323994 0.859194
vt 0.310468 0.763078
vt 0.323994 0.763078
vt 0.305334 0.859194
vt 0.291808 0.859194
vt 0.878703 0.799062
vt 0.417201 0.341531
vt 0.566889 0.341531
vt 0.566889 0.097009
vt 0.417201 0.097009
vt 0.860089 0.814232
vt 0.794923 0.845585
vt 0.694036 0.845585
vt 0.334952 0.763080
vt 0.604452 0.210348
vt 0.168697 0.697117
vt 0.168855 0.763078
vt 0.267449 0.747282
vt 0.614348 0.768053
vt 0.310468 0.859194
vt 0.305334 0.763078
s 1
f 38/1/1 4/2/1 10/3/1
f 28/4/2 8/5/2 11/6/2
f 51/7/3 6/8/3 12/9/3
f 26/10/4 2/11/4 9/12/4
f 58/13/5 22/14/5 56/15/5
f 57/16/6 24/17/6 54/18/6
f 26/19/7 16/20/7 32/21/7
f 51/22/8 15/23/8 52/24/8
f 28/25/9 14/26/9 30/27/9
f 38/28/10 13/29/10 39/30/10
f 39/31/11 61/32/11 70/33/11
f 30/34/12 62/35/12 68/36/12
f 52/37/13 63/38/13 72/39/13
f 32/40/14 64/41/14 66/42/14
f 15/43/14 65/44/14 63/45/14
f 31/46/14 66/42/14 65/44/14
f 13/47/12 67/48/12 61/49/12
f 29/50/12 68/36/12 67/48/12
f 13/29/9 27/51/9 29/52/9
f 27/51/9 30/27/9 29/52/9
f 15/23/7 25/53/7 31/54/7
f 25/53/7 32/21/7 31/54/7
f 53/55/6 6/8/6 50/56/6
f 54/18/6 23/57/6 53/55/6
f 55/58/5 1/59/5 49/60/5
f 56/15/5 21/61/5 55/58/5
f 6/8/4 25/62/4 12/9/4
f 23/57/4 26/10/4 25/62/4
f 4/63/2 27/64/2 10/65/2
f 19/66/2 28/4/2 27/64/2
f 17/67/5 43/68/5 18/69/5
f 18/69/5 33/70/5 3/71/5
f 19/66/6 41/72/6 20/73/6
f 41/74/11 45/75/11 20/76/11
f 14/77/13 69/78/13 62/79/13
f 60/80/11 70/33/11 71/81/11
f 59/82/10 39/30/10 60/83/10
f 14/26/8 37/84/8 40/85/8
f 4/63/6 42/86/6 19/66/6
f 7/87/5 44/88/5 17/67/5
f 8/5/3 37/89/3 11/6/3
f 59/90/1 34/91/1 38/1/1
f 45/92/6 47/93/6 46/94/6
f 36/95/14 48/96/14 41/97/14
f 20/97/12 46/98/12 8/99/12
f 8/100/13 47/93/13 36/101/13
f 2/102/1 59/90/1 9/103/1
f 16/20/10 59/82/10 60/83/10
f 16/104/11 71/81/11 64/105/11
f 44/88/5 55/58/5 43/68/5
f 43/68/5 49/60/5 33/70/5
f 42/86/6 53/55/6 41/72/6
f 41/72/6 50/56/6 36/106/6
f 40/107/13 72/39/13 69/78/13
f 40/85/8 51/22/8 52/24/8
f 34/108/6 54/18/6 42/86/6
f 35/109/5 56/15/5 44/88/5
f 36/106/3 51/7/3 37/89/3
f 64/105/11 49/110/11 1/77/11
f 71/81/11 33/111/11 49/110/11
f 62/79/13 35/112/13 7/113/13
f 67/48/12 17/114/12 18/115/12
f 61/49/12 18/115/12 3/116/12
f 65/44/14 21/117/14 22/118/14
f 63/45/14 22/118/14 5/119/14
f 66/42/14 1/120/14 21/117/14
f 72/39/13 5/121/13 58/122/13
f 68/36/12 7/123/12 17/114/12
f 70/33/11 3/124/11 33/111/11
f 75/125/13 73/126/13 74/127/13
f 72/128/5 75/129/5 69/130/5
f 58/131/12 76/132/12 72/133/12
f 69/98/14 74/134/14 35/135/14
f 38/1/1 34/91/1 4/2/1
f 28/4/2 20/73/2 8/5/2
f 51/7/3 50/56/3 6/8/3
f 26/10/4 24/17/4 2/11/4
f 58/13/5 5/136/5 22/14/5
f 57/16/6 2/11/6 24/17/6
f 26/19/7 9/137/7 16/20/7
f 51/22/8 12/138/8 15/23/8
f 28/25/9 11/139/9 14/26/9
f 38/28/10 10/140/10 13/29/10
f 39/31/11 13/141/11 61/32/11
f 30/34/12 14/142/12 62/35/12
f 52/37/13 15/124/13 63/38/13
f 32/40/14 16/143/14 64/41/14
f 15/43/14 31/46/14 65/44/14
f 31/46/14 32/40/14 66/42/14
f 13/47/12 29/50/12 67/48/12
f 29/50/12 30/34/12 68/36/12
f 13/29/9 10/140/9 27/51/9
f 27/51/9 28/25/9 30/27/9
f 15/23/7 12/138/7 25/53/7
f 25/53/7 26/19/7 32/21/7
f 53/55/6 23/57/6 6/8/6
f 54/18/6 24/17/6 23/57/6
f 55/58/5 21/61/5 1/59/5
f 56/15/5 22/14/5 21/61/5
f 6/8/4 23/57/4 25/62/4
f 23/57/4 24/17/4 26/10/4
f 4/63/2 19/66/2 27/64/2
f 19/66/2 20/73/2 28/4/2
f 17/67/5 44/88/5 43/68/5
f 18/69/5 43/68/5 33/70/5
f 19/66/6 42/86/6 41/72/6
f 41/74/11 48/144/11 45/75/11
f 14/77/13 40/107/13 69/78/13
f 60/80/11 39/31/11 70/33/11
f 59/82/10 38/28/10 39/30/10
f 14/26/8 11/139/8 37/84/8
f 4/63/6 34/108/6 42/86/6
f 7/87/5 35/109/5 44/88/5
f 8/5/3 36/106/3 37/89/3
f 59/90/1 57/145/1 34/91/1
f 45/92/6 48/146/6 47/93/6
f 36/95/14 47/147/14 48/96/14
f 20/97/12 45/96/12 46/98/12
f 8/100/13 46/94/13 47/93/13
f 2/102/1 57/145/1 59/90/1
f 16/20/10 9/137/10 59/82/10
f 16/104/11 60/80/11 71/81/11
f 44/88/5 56/15/5 55/58/5
f 43/68/5 55/58/5 49/60/5
f 42/86/6 54/18/6 53/55/6
f 41/72/6 53/55/6 50/56/6
f 40/107/13 52/37/13 72/39/13
f 40/85/8 37/84/8 51/22/8
f 34/108/6 57/16/6 54/18/6
f 35/109/5 58/13/5 56/15/5
f 36/106/3 50/56/3 51/7/3
f 64/105/11 71/81/11 49/110/11
f 71/81/11 70/33/11 33/111/11
f 62/79/13 69/78/13 35/112/13
f 67/48/12 68/36/12 17/114/12
f 61/49/12 67/48/12 18/115/12
f 65/44/14 66/42/14 21/117/14
f 63/45/14 65/44/14 22/118/14
f 66/42/14 64/41/14 1/120/14
f 72/39/13 63/38/13 5/121/13
f 68/36/12 62/35/12 7/123/12
f 70/33/11 61/32/11 3/124/11
f 75/125/13 76/148/13 73/126/13
f 72/128/5 76/149/5 75/129/5
f 58/131/12 73/150/12 76/132/12
f 69/98/14 75/151/14 74/134/14
