# Blender 4.3.2
# www.blender.org
o rotor
v 0.080974 0.388086 0.201946
v 1.400038 0.388086 1.457056
v 0.203719 0.388086 0.076382
v 1.488450 0.388086 1.366614
v 0.203719 0.421263 0.076382
v 0.080974 0.421263 0.201946
v 1.400038 0.391911 1.457056
v 1.488450 0.391911 1.366614
v 0.202548 0.388086 -0.078588
v 1.467644 0.388086 -1.388077
v 0.077921 0.388086 -0.202284
v 1.377876 0.388086 -1.477174
v 0.077921 0.421263 -0.202284
v 0.202548 0.421263 -0.078588
v 1.467644 0.391911 -1.388077
v 1.377876 0.391911 -1.477174
v -0.076548 0.388086 -0.202483
v -1.373201 0.388086 -1.480731
v -0.201495 0.388086 -0.079111
v -1.463200 0.388086 -1.391867
v -0.201495 0.421263 -0.079111
v -0.076548 0.421263 -0.202483
v -1.373201 0.391911 -1.480731
v -1.463200 0.391911 -1.391867
v -0.201463 0.388086 0.080049
v -1.462636 0.388086 1.393317
v -0.076466 0.388086 0.203371
v -1.372602 0.388086 1.482145
v -0.076466 0.421263 0.203371
v -0.201463 0.421263 0.080049
v -1.462636 0.391911 1.393317
v -1.372602 0.391911 1.482145
vn -0.0000 -1.0000 -0.0000
vn 0.0115 0.9999 0.0113
vn 0.7151 -0.0000 0.6990
vn -0.7151 -0.0000 -0.6990
vn 0.7086 -0.0000 -0.7056
vn -0.6893 -0.0000 0.7245
vn 0.0114 0.9999 -0.0114
vn 0.7044 -0.0000 -0.7098
vn -0.7044 -0.0000 0.7098
vn -0.7002 -0.0000 -0.7140
vn 0.7192 -0.0000 0.6948
vn -0.0113 0.9999 -0.0115
vn -0.7026 -0.0000 -0.7116
vn 0.7026 -0.0000 0.7116
vn -0.7210 -0.0000 0.6929
vn 0.7020 -0.0000 -0.7121
vn -0.0113 0.9999 0.0115
vn -0.7023 -0.0000 0.7119
vn 0.7023 -0.0000 -0.7119
vn 0.7023 -0.0000 0.7119
vn -0.7213 -0.0000 -0.6927
vt -0.410306 0.587796
vt 1.410306 0.436761
vt -0.410306 0.412204
vt 0.563239 0.490749
vt 0.436761 0.494575
vt 0.436761 0.490749
vt 0.412204 0.490749
vt 0.587796 0.523926
vt 0.587796 0.490749
vt -0.410306 0.490749
vt 1.410306 0.494575
vt 1.410306 0.490749
vt -0.410306 0.523926
vt 1.410306 0.563239
vt -0.410305 0.412204
vt 1.410306 0.563239
vt 1.410306 0.436761
vt -0.410305 0.587796
vt 0.563239 0.490749
vt 0.412204 0.490749
vt 0.587796 0.523926
vt 0.587796 0.490749
vt -0.410305 0.490749
vt 1.410306 0.494575
vt 1.410306 0.490749
vt -0.410305 0.523926
vt -0.410306 0.412204
vt 1.410306 0.563239
vt 1.410306 0.436761
vt -0.410306 0.587796
vt 0.563239 0.490749
vt 0.436761 0.494575
vt 0.436761 0.490749
vt 0.412204 0.490749
vt 0.587796 0.523927
vt 0.587796 0.490749
vt -0.410306 0.490749
vt 1.410306 0.494575
vt 1.410306 0.490749
vt -0.410306 0.523927
vt 0.563239 0.494575
vt 0.412204 0.523926
vt 0.563239 0.494575
vt 0.412204 0.523926
vt 0.412204 0.523927
s 0
f 3/1/1 2/2/1 1/3/1
f 7/2/2 5/1/2 6/3/2
f 4/4/3 7/5/3 2/6/3
f 1/7/4 5/8/4 3/9/4
f 3/10/5 8/11/5 4/12/5
f 1/10/6 7/11/6 6/13/6
f 9/3/1 12/14/1 10/2/1
f 14/3/7 16/14/7 13/1/7
f 12/4/8 15/5/8 10/6/8
f 9/7/9 13/8/9 11/9/9
f 11/10/10 16/11/10 12/12/10
f 9/10/11 15/11/11 14/13/11
f 17/15/1 20/16/1 18/17/1
f 23/17/12 21/18/12 22/15/12
f 20/19/13 23/5/13 18/6/13
f 17/20/14 21/21/14 19/22/14
f 19/23/15 24/24/15 20/25/15
f 17/23/16 23/24/16 22/26/16
f 25/27/1 28/28/1 26/29/1
f 31/29/17 29/30/17 30/27/17
f 28/31/18 31/32/18 26/33/18
f 25/34/19 29/35/19 27/36/19
f 27/37/20 32/38/20 28/39/20
f 25/37/21 31/38/21 30/40/21
f 3/1/1 4/14/1 2/2/1
f 7/2/2 8/14/2 5/1/2
f 4/4/3 8/41/3 7/5/3
f 1/7/4 6/42/4 5/8/4
f 3/10/5 5/13/5 8/11/5
f 1/10/6 2/12/6 7/11/6
f 9/3/1 11/1/1 12/14/1
f 14/3/7 15/2/7 16/14/7
f 12/4/8 16/41/8 15/5/8
f 9/7/9 14/42/9 13/8/9
f 11/10/10 13/13/10 16/11/10
f 9/10/11 10/12/11 15/11/11
f 17/15/1 19/18/1 20/16/1
f 23/17/12 24/16/12 21/18/12
f 20/19/13 24/43/13 23/5/13
f 17/20/14 22/44/14 21/21/14
f 19/23/15 21/26/15 24/24/15
f 17/23/16 18/25/16 23/24/16
f 25/27/1 27/30/1 28/28/1
f 31/29/17 32/28/17 29/30/17
f 28/31/18 32/41/18 31/32/18
f 25/34/19 30/45/19 29/35/19
f 27/37/20 29/40/20 32/38/20
f 25/37/21 26/39/21 31/38/21
